<svg width="31" height="35" viewBox="0 0 31 35" fill="none" xmlns="http://www.w3.org/2000/svg">
<path d="M3.44992 0.0473785C1.92882 0.324501 0.689983 1.25726 0.180336 2.53474L0 2.9876V17.2832V31.5787L0.180336 32.0248C0.627257 33.1468 1.63087 34.012 2.92459 34.3973L3.44992 34.5527H15.2502H27.0505L27.5758 34.3973C28.8695 34.012 29.8731 33.1468 30.3201 32.0248L30.5004 31.5787V20.3924V9.206L30.3279 8.73286C29.9986 7.84741 29.7947 7.6514 25.5137 4.15693C23.3105 2.359 21.2954 0.763847 21.0288 0.608387C20.7622 0.459686 20.3153 0.256912 20.033 0.169044L19.5234 0.0135841L11.6435 6.48499e-05C7.30755 6.48499e-05 3.62241 0.0203438 3.44992 0.0473785ZM18.3238 5.1708L18.3473 8.32731L18.606 8.78017C18.904 9.30063 19.3274 9.65886 19.9468 9.90895L20.3859 10.0847L24.2905 10.105L28.1874 10.1252V20.6222C28.1874 32.4101 28.2344 31.5111 27.5993 32.0519C26.9721 32.5993 27.9051 32.5588 15.2502 32.5588C2.59528 32.5588 3.52832 32.5993 2.90107 32.0519C2.25813 31.5044 2.31301 32.8089 2.31301 17.2832C2.31301 1.75068 2.25813 3.06195 2.90107 2.51446C3.5048 1.99401 3.05788 2.02105 11.1103 2.01429L18.3002 2.00753L18.3238 5.1708ZM24.2905 5.95486C25.7019 7.10391 26.8545 8.05695 26.8545 8.07047C26.8545 8.07722 25.5137 8.09074 23.8828 8.09074C21.2797 8.09074 20.8877 8.07722 20.7857 7.9826C20.676 7.89473 20.6603 7.56353 20.6603 5.44116V3.00788L21.1935 3.4337C21.4836 3.66351 22.8714 4.79905 24.2905 5.95486Z" fill="#2C2C2E"/>
<path d="M5.82557 13.6401C5.48841 13.7888 5.21399 14.1876 5.21399 14.512C5.21399 14.85 5.48841 15.2352 5.84125 15.3907C6.14703 15.5259 6.28033 15.5259 15.0149 15.5259C23.7494 15.5259 23.8827 15.5259 24.1885 15.3907C24.5414 15.2352 24.8158 14.85 24.8158 14.512C24.8158 14.1741 24.5414 13.7888 24.1885 13.6333C23.8827 13.4981 23.7494 13.4981 14.9992 13.4981C6.31169 13.5049 6.10783 13.5049 5.82557 13.6401Z" fill="#2C2C2E"/>
<path d="M5.82557 19.0473C5.48841 19.196 5.21399 19.5948 5.21399 19.9192C5.21399 20.2572 5.48841 20.6425 5.84125 20.7979C6.14703 20.9331 6.28033 20.9331 15.0149 20.9331C23.7494 20.9331 23.8827 20.9331 24.1885 20.7979C24.5414 20.6425 24.8158 20.2572 24.8158 19.9192C24.8158 19.5813 24.5414 19.196 24.1885 19.0405C23.8827 18.9054 23.7494 18.9054 14.9992 18.9054C6.31169 18.9121 6.10783 18.9121 5.82557 19.0473Z" fill="#2C2C2E"/>
<path d="M5.82557 24.4479C5.48841 24.6033 5.21399 25.0021 5.21399 25.3265C5.21399 25.6645 5.48841 26.0498 5.84125 26.2052C6.14703 26.3404 6.26465 26.3472 9.33037 26.3269C12.3882 26.3066 12.5059 26.2999 12.7097 26.1647C13.1017 25.9146 13.2507 25.678 13.2507 25.3265C13.2507 24.9751 13.1017 24.7385 12.7097 24.4884C12.498 24.3532 12.3882 24.3465 9.30684 24.3329C6.24896 24.3194 6.09999 24.3194 5.82557 24.4479Z" fill="#2C2C2E"/>
</svg>
