<svg width="33" height="32" viewBox="0 0 33 32" fill="none" xmlns="http://www.w3.org/2000/svg">
<path d="M15.3467 0.0865116C14.856 0.242382 14.4282 0.525784 14.057 0.9438C13.8053 1.23429 12.3143 3.9691 7.08613 13.7323C3.43083 20.5693 0.366928 26.3153 0.28514 26.5136C-0.444662 28.1928 0.278848 30.2333 1.85799 30.9559L2.22289 31.1189H16.0954H29.9679L30.3328 30.9559C31.9308 30.2262 32.6418 28.1786 31.8868 26.4782C31.6351 25.9114 18.6371 1.63813 18.3729 1.24137C18.0898 0.816269 17.5739 0.384083 17.1146 0.185701C16.6428 -0.0126781 15.8123 -0.062273 15.3467 0.0865116ZM16.3659 2.41748C16.4792 2.46708 16.6239 2.58752 16.6994 2.67963C16.9007 2.94177 30.0057 27.4559 30.0623 27.6898C30.1692 28.1007 29.9365 28.5683 29.5401 28.7383C29.2885 28.8446 2.90236 28.8446 2.6507 28.7383C2.25434 28.5683 2.02156 28.1007 2.12852 27.6898C2.18514 27.4559 15.2901 2.94177 15.4914 2.67963C15.6236 2.50959 15.9318 2.32538 16.0828 2.31829C16.1269 2.31829 16.2527 2.3608 16.3659 2.41748Z" fill="black"/>
<path d="M15.548 9.78581C15.2209 9.90626 14.9629 10.1259 14.8245 10.4164C14.6798 10.714 14.6798 11.9963 14.8056 15.3192C14.8623 16.6795 14.9252 18.3799 14.9503 19.0884C15.0007 20.4984 15.0133 20.548 15.4348 20.7959C15.7305 20.9731 16.4414 20.9518 16.7685 20.7534C17.1775 20.5125 17.2089 20.3992 17.2593 18.7554C17.2782 17.9548 17.3411 16.3324 17.3914 15.1421C17.4984 12.5065 17.5046 10.7281 17.4103 10.5156C17.102 9.83541 16.303 9.52367 15.548 9.78581Z" fill="black"/>
<path d="M15.762 22.5177C14.8498 22.7657 14.3842 23.9347 14.812 24.9054C15.0637 25.4722 15.5922 25.8406 16.1521 25.8406C16.9322 25.8406 17.6809 24.8841 17.5865 24.0056C17.4796 22.9711 16.6302 22.2839 15.762 22.5177Z" fill="black"/>
</svg>
