<svg width="38" height="36" viewBox="0 0 38 36" fill="none" xmlns="http://www.w3.org/2000/svg">
<path d="M15.2446 0.126461C15.0297 0.216618 14.7332 0.388733 14.5924 0.519867C14.4516 0.651001 12.7619 3.15076 10.835 6.0849L7.33698 11.4122L4.78015 11.4532L2.22333 11.4942L1.72678 11.7565C1.03755 12.1171 0.607709 12.5761 0.27421 13.3219C0.0148222 13.912 0 13.9858 0 14.7316C0 15.4774 0.0148222 15.5512 0.27421 16.1413C0.444665 16.5183 0.68182 16.8871 0.889331 17.1002C1.23765 17.4608 2.10475 17.9526 2.58647 18.0673C2.76434 18.1083 2.92738 18.2149 3.0089 18.3378C3.10525 18.4853 3.49062 20.6818 4.4096 26.2878C5.10624 30.5497 5.72877 34.2051 5.78806 34.4182C5.93628 34.9099 6.40318 35.5 6.8849 35.7787L7.26287 36H18.9353H30.6078L30.9858 35.7787C31.4675 35.5 31.9344 34.9099 32.0826 34.4182C32.1419 34.2051 32.7644 30.5497 33.4611 26.2878C34.38 20.6818 34.7654 18.4853 34.8618 18.3378C34.9433 18.2149 35.1063 18.1083 35.2842 18.0673C35.7659 17.9526 36.633 17.4608 36.9813 17.1002C37.1888 16.8871 37.426 16.5183 37.5965 16.1413C37.8558 15.5512 37.8707 15.4774 37.8707 14.7398C37.8707 14.0267 37.8484 13.9038 37.6335 13.4039C37.3074 12.6416 36.8924 12.1663 36.218 11.7975L35.6547 11.4942L33.0979 11.4532L30.5337 11.4122L27.0357 6.0849C24.7753 2.64261 23.4339 0.667393 23.2338 0.495277C22.6261 -0.0374565 21.7219 -0.152199 20.9956 0.208424C20.0025 0.691982 19.4763 1.95415 19.7802 3.10978C19.8765 3.48679 20.3286 4.19164 22.5964 7.50279L25.3015 11.4532H18.9353H12.5618L13.4808 10.1173C17.8163 3.80643 17.9719 3.56055 18.0905 3.10978C18.3054 2.30658 18.1201 1.42142 17.6087 0.773941C17.0751 0.101875 16.0302 -0.184982 15.2446 0.126461ZM16.334 1.73286C16.5564 1.864 16.712 2.16725 16.712 2.47869C16.712 2.67539 16.2748 3.33926 12.2505 9.19934L10.7313 11.4122L9.93827 11.4368L9.13787 11.4614L9.39726 11.068C9.53807 10.8549 10.961 8.683 12.5618 6.24881C14.1626 3.81462 15.5411 1.78204 15.63 1.72467C15.8375 1.59353 16.0821 1.59353 16.334 1.73286ZM22.2407 1.72467C22.3296 1.78204 23.7081 3.81462 25.3089 6.24881C26.9097 8.683 28.3326 10.8549 28.4734 11.068L28.7328 11.4614L27.9324 11.4368L27.132 11.4122L25.6201 9.19934C21.3439 2.96225 21.1587 2.68359 21.1587 2.45411C21.1661 1.83121 21.7664 1.42962 22.2407 1.72467ZM35.7066 13.3301C35.8623 13.4366 36.0772 13.6743 36.1883 13.8546C36.3588 14.1333 36.3884 14.2808 36.3884 14.7398C36.3884 15.2233 36.3588 15.3381 36.1661 15.6413C36.0475 15.8298 35.8104 16.0675 35.6473 16.1577C35.3509 16.3298 35.2694 16.3298 28.4956 16.3708C24.7234 16.3954 21.5811 16.4445 21.507 16.4855C21.3365 16.5757 21.1587 16.9609 21.1587 17.2395C21.1587 17.3707 21.2476 17.551 21.4106 17.7313L21.6626 18.01H27.4951H33.3277L33.2906 18.1903C33.2684 18.2968 32.6755 21.862 31.9788 26.1239C31.2748 30.3776 30.6745 33.9264 30.6374 34.0084C30.4373 34.4182 30.9635 34.4018 18.9427 34.4018C12.0134 34.4018 7.6853 34.369 7.56672 34.3198C7.46297 34.2789 7.32957 34.1641 7.27028 34.0576C7.21099 33.951 6.61069 30.5169 5.89182 26.1239C5.19517 21.862 4.60229 18.2968 4.58005 18.1903L4.543 18.01H10.3311C16.6231 18.01 16.4304 18.0264 16.6231 17.5592C16.6749 17.4444 16.712 17.2723 16.712 17.1822C16.712 16.9527 16.5193 16.5675 16.3637 16.4855C16.2896 16.4445 13.1324 16.3954 9.33797 16.3708L2.44566 16.3298L2.16404 16.1331C1.6008 15.7479 1.34141 14.9857 1.51186 14.2562C1.61562 13.83 2.0751 13.2973 2.42343 13.1826C2.57906 13.1334 8.84884 13.1088 19.0465 13.117L35.425 13.1334L35.7066 13.3301Z" fill="black"/>
<path d="M18.5721 16.4856C17.9274 16.879 18.2016 18.01 18.9353 18.01C19.3133 18.01 19.6764 17.6084 19.6764 17.1986C19.6764 16.5839 19.0613 16.1823 18.5721 16.4856Z" fill="black"/>
<path d="M10.8053 20.6163C10.0568 20.9114 9.53798 21.5588 9.37494 22.3866C9.31565 22.6653 9.30083 23.9848 9.31565 26.4518C9.33788 29.9597 9.34529 30.1154 9.49351 30.476C9.72326 31.0169 10.0716 31.4103 10.5459 31.6726C10.8942 31.8611 11.0647 31.9021 11.5242 31.9021C12.4505 31.9021 13.1694 31.394 13.5548 30.476C13.703 30.1072 13.7104 29.9925 13.7104 26.2059C13.7104 22.4194 13.703 22.3047 13.5548 21.9359C13.0731 20.7802 11.8577 20.1983 10.8053 20.6163ZM11.8873 22.2227C12.2579 22.4358 12.2653 22.5178 12.2653 26.2059C12.2653 29.8941 12.2579 29.9761 11.8873 30.1892C11.5019 30.4104 11.035 30.2547 10.872 29.8531C10.7386 29.5335 10.7534 22.7964 10.8868 22.526C11.0795 22.1408 11.5093 22.0096 11.8873 22.2227Z" fill="black"/>
<path d="M18.2164 20.6163C17.4679 20.9114 16.9491 21.5588 16.7861 22.3866C16.7268 22.6653 16.712 23.9848 16.7268 26.4518C16.749 29.9597 16.7564 30.1154 16.9046 30.476C17.1344 31.0169 17.4827 31.4103 17.957 31.6726C18.3053 31.8611 18.4758 31.9021 18.9353 31.9021C19.8617 31.9021 20.5805 31.394 20.9659 30.476C21.1141 30.1072 21.1216 29.9925 21.1216 26.2059C21.1216 22.4194 21.1141 22.3047 20.9659 21.9359C20.4842 20.7802 19.2688 20.1983 18.2164 20.6163ZM19.2984 22.2227C19.669 22.4358 19.6764 22.5178 19.6764 26.2059C19.6764 29.8941 19.669 29.9761 19.2984 30.1892C18.9131 30.4104 18.4462 30.2547 18.2831 29.8531C18.1497 29.5335 18.1645 22.7964 18.2979 22.526C18.4906 22.1408 18.9205 22.0096 19.2984 22.2227Z" fill="black"/>
<path d="M25.6274 20.6163C24.8789 20.9114 24.3601 21.5588 24.1971 22.3866C24.1378 22.6653 24.123 23.9848 24.1378 26.4518C24.16 29.9597 24.1674 30.1154 24.3157 30.476C24.5454 31.0169 24.8937 31.4103 25.368 31.6726C25.7164 31.8611 25.8868 31.9021 26.3463 31.9021C27.2727 31.9021 27.9916 31.394 28.3769 30.476C28.5252 30.1072 28.5326 29.9925 28.5326 26.2059C28.5326 22.4194 28.5252 22.3047 28.3769 21.9359C27.8952 20.7802 26.6798 20.1983 25.6274 20.6163ZM26.7094 22.2227C27.08 22.4358 27.0874 22.5178 27.0874 26.2059C27.0874 29.8941 27.08 29.9761 26.7094 30.1892C26.3241 30.4104 25.8572 30.2547 25.6941 29.8531C25.5607 29.5335 25.5755 22.7964 25.7089 22.526C25.9016 22.1408 26.3315 22.0096 26.7094 22.2227Z" fill="black"/>
</svg>
