<svg width="38" height="36" viewBox="0 0 38 36" fill="none" xmlns="http://www.w3.org/2000/svg">
<g clip-path="url(#clip0_268_345)">
<path d="M17.7294 0.168755C17.4927 0.260159 17.1747 0.421879 17.0267 0.520317C16.8714 0.618752 13.1361 4.14141 8.71292 8.3461C2.23349 14.5195 0.643219 16.0664 0.48789 16.3617C-0.222184 17.7258 0.0145072 19.2164 1.10181 20.257C1.7823 20.8969 2.6477 21.2344 3.63885 21.2344H4.14182V26.8594C4.14182 30.6633 4.1714 32.5969 4.22318 32.85C4.50425 34.1297 5.59155 35.2898 6.93774 35.7328C7.42591 35.8945 7.4629 35.8945 11.0355 35.8945C14.5562 35.8945 14.6376 35.8945 14.8373 35.7469C14.9483 35.6695 15.111 35.5148 15.1924 35.4094C15.3477 35.2195 15.3477 35.1281 15.3847 30.5227L15.4217 25.8258L15.6436 25.4813C15.9246 25.0523 16.4942 24.7078 17.0415 24.6445C17.2486 24.6164 18.2841 24.6094 19.3419 24.6234L21.265 24.6445L21.657 24.8484C22.0268 25.0453 22.2635 25.2773 22.4928 25.6641C22.5742 25.8117 22.6038 26.6766 22.6334 30.5297C22.6703 35.1281 22.6703 35.2195 22.8257 35.4094C22.907 35.5148 23.0698 35.6695 23.1807 35.7469C23.3804 35.8945 23.4618 35.8945 26.9826 35.8945C30.5551 35.8945 30.5921 35.8945 31.0803 35.7328C32.4265 35.2898 33.5138 34.1297 33.7948 32.85C33.8466 32.5969 33.8762 30.6633 33.8762 26.8594V21.2344H34.3792C35.7697 21.2344 36.9828 20.5313 37.5819 19.3711C37.8334 18.8859 37.8334 18.8719 37.8334 17.9297C37.8334 16.3266 38.684 17.2758 29.1868 8.25469C19.7487 -0.724216 20.6954 0.049221 19.083 0.0140648C18.2472 3.8147e-06 18.1214 0.0140648 17.7294 0.168755ZM19.5564 2.17969C19.9928 2.37656 35.4517 17.093 35.6144 17.4516C35.7697 17.8102 35.7549 18.1125 35.57 18.4641C35.2964 19.0055 35.0671 19.0828 33.6395 19.125C32.3007 19.1602 32.2046 19.1883 31.8495 19.6453C31.6942 19.8352 31.6942 19.9125 31.6572 26.2125L31.6202 32.5898L31.4131 32.9203C31.3022 33.1031 31.1025 33.3352 30.9693 33.4266C30.4516 33.8063 30.2962 33.8203 27.4707 33.8203H24.8523V29.8828C24.8523 27.3023 24.8227 25.8258 24.771 25.5797C24.4825 24.2578 23.3656 23.1188 21.9307 22.6898C21.4425 22.5422 21.2798 22.5352 19.009 22.5352C16.361 22.5352 16.2279 22.5492 15.2811 23.0063C14.3417 23.4563 13.4689 24.5672 13.247 25.5797C13.1953 25.8258 13.1657 27.3023 13.1657 29.8828V33.8203H10.5473C7.72178 33.8203 7.56645 33.8063 7.04869 33.4266C6.91555 33.3352 6.71584 33.1031 6.60489 32.9203L6.39779 32.5898L6.3608 26.2125C6.32382 19.9125 6.32382 19.8352 6.16849 19.6453C5.81345 19.1883 5.7173 19.1602 4.37851 19.125C2.95096 19.0828 2.72167 19.0055 2.44799 18.4641C2.26308 18.1125 2.24828 17.8102 2.40361 17.4516C2.55894 17.1 18.0253 2.3836 18.4543 2.17969C18.8315 2.00391 19.1791 2.00391 19.5564 2.17969Z" fill="black"/>
</g>
<defs>
<clipPath id="clip0_268_345">
<rect width="37.8707" height="36" fill="white"/>
</clipPath>
</defs>
</svg>
