<svg width="38" height="36" viewBox="0 0 38 36" fill="none" xmlns="http://www.w3.org/2000/svg">
<path d="M8.59749 3.47367C4.76169 3.73262 1.8657 5.22315 1.28789 7.23157C1.19739 7.55999 1.18347 8.93052 1.18347 18.5684C1.18347 28.2063 1.19739 29.5768 1.28789 29.9053C1.73343 31.44 3.56431 32.7158 6.19577 33.3095C7.35834 33.5684 8.32599 33.6695 9.74614 33.6758C11.939 33.6758 13.6655 33.3853 15.2388 32.7347C15.8444 32.4884 16.7912 31.9263 17.0836 31.6484C17.2019 31.541 17.3203 31.4526 17.3551 31.4526C17.3899 31.4526 17.5639 31.5663 17.738 31.7116C18.7265 32.4947 20.2998 33.1516 21.894 33.4358C23.0496 33.6379 23.6483 33.6821 25.0615 33.6631C26.6487 33.6442 27.1499 33.6442 28.7024 33.6631C29.8789 33.6821 30.4079 33.6063 31.4522 33.2779C33.3248 32.6842 34.9399 31.3768 35.8658 29.7158C36.4714 28.6295 36.736 27.7389 36.7986 26.5579C36.917 24.3916 35.998 22.4147 34.1741 20.8926L33.5545 20.3684V18.221C33.5545 15.9095 33.5267 15.6631 33.1786 15.0442C32.4964 13.8253 30.5611 12.701 28.3404 12.2463C26.3076 11.8295 24.0173 11.7979 22.0332 12.1579C20.8985 12.3663 20.1606 12.5937 19.2347 13.0105L18.448 13.3705V10.7116C18.448 9.24631 18.4132 7.83788 18.3784 7.57894C18.267 6.82736 17.9398 6.27788 17.2089 5.62736C15.7052 4.28209 13.394 3.55578 10.3031 3.45473C9.78791 3.43578 9.02214 3.44841 8.59749 3.47367ZM12.0017 5.49473C14.4452 5.87367 16.29 6.90946 16.29 7.90736C16.29 8.31157 16.102 8.62736 15.6565 8.99367C13.5123 10.7431 8.0893 11.0653 5.01231 9.62525C4.16996 9.23367 3.6757 8.86104 3.45293 8.45683C3.23712 8.06525 3.23016 7.83157 3.4042 7.4842C3.90543 6.49262 6.01477 5.61473 8.49307 5.36841C9.3563 5.2863 11.041 5.34315 12.0017 5.49473ZM4.76169 11.621C5.56227 11.9053 6.32803 12.0947 7.35138 12.2589C8.0893 12.3789 8.50699 12.4042 9.71133 12.4042C11.3125 12.4105 12.0295 12.341 13.3035 12.0568C14.2224 11.8547 14.9812 11.5958 15.7191 11.2358C16.0045 11.1031 16.2482 10.9895 16.2691 10.9895C16.283 10.9895 16.29 11.3558 16.276 11.7979C16.2552 12.5874 16.2482 12.6063 16.0394 12.8716C15.4128 13.6421 14.0275 14.261 12.1618 14.6021C11.4935 14.7284 11.1593 14.7474 9.81576 14.7474C8.6323 14.7474 8.09626 14.7221 7.62288 14.64C5.54834 14.28 3.84973 13.4905 3.41812 12.6758C3.29281 12.4484 3.27193 12.2842 3.27193 11.6653V10.9326L3.74531 11.1789C4.00289 11.3116 4.45539 11.5137 4.76169 11.621ZM26.6905 13.901C27.9992 14.0526 29.496 14.5074 30.3105 15C30.8117 15.2968 31.306 15.7958 31.4034 16.1053C31.7097 17.021 30.4775 18.0189 28.3334 18.6C26.3981 19.1242 23.6901 19.1368 21.6643 18.6253C20.2163 18.2589 18.9423 17.5516 18.5803 16.92C18.1417 16.1305 18.7195 15.341 20.2163 14.6842C20.982 14.3495 21.532 14.1853 22.437 14.0147C23.7249 13.781 25.2703 13.7368 26.6905 13.901ZM3.99593 15.5431C5.55531 16.2884 7.52542 16.6737 9.78095 16.6737C12.0782 16.6737 14.1597 16.2631 15.7052 15.5053L16.29 15.221V15.9979C16.29 16.7495 16.283 16.7874 16.0881 17.0653C15.566 17.8105 14.0971 18.4926 12.3149 18.821C9.22403 19.3958 5.56227 18.821 3.96808 17.5137C3.36243 17.0147 3.27193 16.8126 3.27193 15.9284C3.27193 15.5431 3.28585 15.221 3.29977 15.221C3.3137 15.221 3.62697 15.3663 3.99593 15.5431ZM5.70846 20.4253C9.06391 21.3284 13.3731 21.0063 15.8932 19.6674L16.29 19.4589V20.2168C16.29 21.1263 16.2134 21.2968 15.6147 21.7831C14.7167 22.5095 13.0598 23.0463 11.1245 23.2358C7.87349 23.5579 4.21173 22.5916 3.45293 21.2084C3.29281 20.9116 3.27193 20.8105 3.27193 20.1726V19.4653L4.09339 19.8379C4.53892 20.04 5.26988 20.3053 5.70846 20.4253ZM19.2068 19.7874C20.0353 20.1789 21.0516 20.4821 22.068 20.6526C22.5066 20.7284 22.9382 20.8042 23.0287 20.8168C23.1749 20.8421 23.154 20.88 22.7294 21.3031C22.3465 21.6821 21.901 22.2316 21.5459 22.7684C21.4833 22.8631 21.4554 22.8631 21.1282 22.7684C20.0701 22.4526 19.0189 21.8274 18.6499 21.2968C18.455 21.0189 18.448 20.981 18.448 20.2231C18.448 19.7937 18.4689 19.4526 18.5037 19.4653C18.5316 19.4779 18.8448 19.6231 19.2068 19.7874ZM30.206 21.0316C32.016 21.4231 33.5476 22.6042 34.2228 24.1263C35.2323 26.3874 34.6823 28.7368 32.7679 30.3537C30.7073 32.0968 27.5816 32.2926 25.2355 30.8147C22.444 29.0653 21.8244 25.5853 23.8363 23.021C24.7064 21.9221 26.238 21.1074 27.8322 20.9116C28.4657 20.8295 29.5169 20.8863 30.206 21.0316ZM4.78258 24.3789C6.44638 24.9726 7.70642 25.1684 9.85056 25.1621C12.4959 25.1621 13.8186 24.8716 16.2343 23.76C16.2691 23.7474 16.29 24.0695 16.29 24.4737C16.29 25.3326 16.2273 25.4968 15.74 25.9326C14.9255 26.6589 13.4427 27.2021 11.5561 27.4484C10.4562 27.5937 8.34688 27.5431 7.34442 27.3474C5.86857 27.0631 4.65727 26.5895 3.95416 26.021C3.36939 25.5474 3.27193 25.32 3.27193 24.4231V23.6905L3.6757 23.9053C3.8915 24.0316 4.39273 24.24 4.78258 24.3789ZM20.0562 24.4168C20.7175 24.6442 20.7523 24.6631 20.7105 24.8147C20.627 25.1747 20.5435 25.9516 20.5365 26.3495C20.5365 26.5895 20.5156 26.7789 20.4808 26.7789C20.3833 26.7789 19.4923 26.28 19.179 26.0526C19.0119 25.9263 18.7752 25.6926 18.6569 25.5284C18.455 25.2505 18.448 25.2253 18.448 24.4674V23.6905L18.9075 23.9368C19.1581 24.0695 19.6802 24.2842 20.0562 24.4168ZM19.5271 28.4526C19.7986 28.5663 20.258 28.7368 20.5574 28.8316L21.1004 29.0084L21.3371 29.4758C21.6503 30.0947 22.1376 30.7453 22.6458 31.2442C22.8756 31.4653 23.0496 31.661 23.0287 31.6737C22.98 31.7179 21.525 31.4084 21.0586 31.2505C19.9239 30.8779 19.0119 30.3347 18.6499 29.8231C18.455 29.5389 18.448 29.5074 18.448 28.7179V27.9095L18.7474 28.0737C18.9075 28.1684 19.2625 28.3389 19.5271 28.4526ZM4.00289 28.301C7.33049 29.8484 12.5864 29.8168 15.7887 28.2253L16.29 27.9726V28.7558C16.29 29.5074 16.283 29.5453 16.0881 29.8231C15.5033 30.6631 13.6655 31.4274 11.5492 31.7116C10.6163 31.8379 8.61141 31.8063 7.6368 31.6484C6.02173 31.3895 4.60158 30.84 3.87062 30.2021C3.36243 29.7537 3.27193 29.5326 3.27193 28.6863C3.27193 28.2884 3.29281 27.9789 3.32762 27.9916C3.35547 28.0042 3.66177 28.1431 4.00289 28.301Z" fill="#2C2C2E"/>
<path d="M28.0062 22.6738C26.4538 22.9264 25.138 24.038 24.7482 25.4211C24.4071 26.6275 24.8387 28.0422 25.8063 28.9201C27.0455 30.0443 28.8973 30.3032 30.5402 29.5896C32.4824 28.7559 33.3039 26.4948 32.3293 24.6948C31.8489 23.8169 30.8604 23.059 29.8023 22.7748C29.3289 22.6485 28.4726 22.598 28.0062 22.6738ZM29.4403 24.6759C30.5889 25.0485 31.0205 26.4443 30.2687 27.379C29.8649 27.8906 29.2314 28.1432 28.5074 28.0864C27.5049 28.0169 26.7392 27.2717 26.7322 26.3622C26.7253 25.0296 28.0271 24.2211 29.4403 24.6759Z" fill="#2C2C2E"/>
</svg>
