<svg width="38" height="36" viewBox="0 0 38 36" fill="none" xmlns="http://www.w3.org/2000/svg">
<path d="M24.09 2.41025C23.3288 2.6177 22.5801 3.19126 22.2583 3.82584L22.0974 4.13702L21.7942 3.99058C20.9836 3.60618 19.9811 3.63669 19.1581 4.07601C18.4589 4.44211 17.8586 5.24143 17.6916 6.02855C17.5492 6.70584 17.7225 7.61499 18.0938 8.15194C18.1804 8.28618 18.9539 9.0855 19.8141 9.93363L21.3672 11.4835L16.9057 15.8828L12.4441 20.2821L10.9219 18.775C10.0803 17.9452 9.26967 17.1824 9.12116 17.0787C7.4999 15.9804 5.17939 16.8652 4.67197 18.7628C4.5049 19.4157 4.57915 20.154 4.87618 20.7519L4.99994 20.996L4.68435 21.1546C4.27594 21.356 3.71283 21.9174 3.50244 22.3201C3.1621 22.9791 3.07546 23.6991 3.24873 24.3641C3.42199 25.017 3.62001 25.3099 4.56678 26.2496L5.46404 27.1465L4.92568 27.714C4.27594 28.3974 3.9851 28.9282 3.90466 29.5628C3.66333 31.5031 5.24127 33.053 7.22762 32.815C7.85261 32.7418 8.39716 32.4489 9.08403 31.8143L9.65951 31.2835L10.5692 32.1682C11.5221 33.1018 11.8191 33.297 12.4812 33.4679C13.1619 33.6448 13.9231 33.5472 14.5666 33.2055C14.9812 32.9858 15.5381 32.4367 15.7361 32.0523L15.897 31.7411L16.1941 31.8875C16.621 32.0889 17.1037 32.1743 17.6359 32.1377C19.6903 31.9974 20.9465 29.8618 20.0678 28.0252C19.8574 27.598 19.2757 26.9513 17.8215 25.5418L16.6334 24.3885L21.0826 20.0014L25.5318 15.6143L27.0602 17.1092C28.6815 18.6957 28.9476 18.9153 29.5045 19.1167C30.0119 19.3058 31.0144 19.2997 31.5032 19.1106C32.2767 18.8055 32.9512 18.1465 33.2297 17.4021C33.4958 16.7187 33.4586 15.8157 33.143 15.175L32.9945 14.8821L33.3101 14.7235C34.3373 14.2109 34.9933 12.893 34.7952 11.7458C34.6653 10.9831 34.4363 10.6353 33.4401 9.63465L32.5304 8.7316L33.0688 8.16414C33.9351 7.25499 34.2074 6.54109 34.0836 5.4916C34.0279 5.02787 33.7185 4.35669 33.3906 3.99058C32.4995 2.9777 30.8906 2.73974 29.6839 3.44143C29.5416 3.52075 29.1765 3.81363 28.8795 4.08821L28.335 4.59465L27.4253 3.70991C26.8127 3.11194 26.4105 2.77024 26.1939 2.66041C25.5194 2.32482 24.7521 2.2394 24.09 2.41025ZM25.2348 4.24075C25.5503 4.36889 32.6851 11.398 32.8584 11.7519C33.0193 12.0692 33.0131 12.3438 32.8522 12.6733C32.6171 13.1553 31.9116 13.3933 31.4475 13.1553C31.2433 13.0455 23.9291 5.82109 23.8301 5.63194C23.7929 5.55872 23.762 5.36957 23.762 5.21092C23.762 4.45431 24.5231 3.95397 25.2348 4.24075ZM31.6827 4.97296C32.0416 5.15601 32.2396 5.4855 32.2396 5.91872C32.2396 6.32143 32.153 6.46787 31.627 6.98652L31.1876 7.41364L30.4327 6.66313L29.6716 5.91872L30.1047 5.4855C30.3461 5.24753 30.5936 5.02787 30.6616 4.99126C30.9649 4.82041 31.3671 4.82041 31.6827 4.97296ZM21.0021 5.64414C21.262 5.76618 31.4104 15.7852 31.497 16.0048C31.8312 16.8957 30.8658 17.7682 30.0243 17.335C29.7396 17.1885 19.7274 7.3038 19.5913 7.03533C19.1705 6.1994 20.142 5.24143 21.0021 5.64414ZM23.4526 13.5519L24.2199 14.2841L19.7584 18.6835L15.2906 23.0889L14.5419 22.3323L13.7993 21.5696L18.2361 17.1946C20.6804 14.7845 22.6791 12.8136 22.6853 12.8136C22.6853 12.8136 23.0318 13.1431 23.4526 13.5519ZM7.97019 18.5431C8.31671 18.7262 18.2918 28.5926 18.4094 28.8733C18.7621 29.7214 17.9143 30.5818 17.0356 30.2645C16.8129 30.1791 6.65214 20.1723 6.52838 19.916C6.11378 19.0435 7.10386 18.1038 7.97019 18.5431ZM6.516 22.7045C6.70783 22.8021 14.0344 30.0143 14.1458 30.2157C14.3872 30.6733 14.1458 31.3689 13.657 31.6008C13.3228 31.7594 13.0444 31.7655 12.7226 31.6069C12.3637 31.436 5.23508 24.4008 5.10513 24.0896C4.8143 23.3879 5.31553 22.6374 6.08284 22.6374C6.24992 22.6374 6.44174 22.6679 6.516 22.7045ZM7.58034 29.2272L8.3229 29.9594L7.88974 30.3926C7.36995 30.9052 7.20287 31.0028 6.81303 31.0089C6.37368 31.0089 6.02715 30.7953 5.81676 30.3926C5.71775 30.2035 5.71775 29.7153 5.81676 29.5262C5.89101 29.3797 6.74496 28.495 6.80684 28.495C6.8254 28.495 7.17193 28.8245 7.58034 29.2272Z" fill="black"/>
</svg>
